
<global>
amp_veltrack=0
ampeg_attack=0.01
ampeg_release=0.85
</global>

<group>
group_label=PP
xf_cccurve=gain
xfin_hicc1=42
xfout_hicc1=84
xfout_locc1=43

<region>
end=373147
hikey=A5
hivel=127
lokey=G#5
loop_end=296184
loop_mode=loop_continuous
loop_start=100316
loop_xfade=19458
lovel=0
offset=15525
pitch_keycenter=G#5
sample=Violas_sul_tasto_PP_G#5.opus
</region>

<region>
end=364712
hikey=A4
hivel=127
lokey=G#4
loop_end=289489
loop_mode=loop_continuous
loop_start=98049
loop_xfade=19018
lovel=0
offset=4163
pitch_keycenter=G#4
sample=Violas_sul_tasto_PP_G#4.opus
</region>

<region>
end=302725
hikey=A3
hivel=127
lokey=G#3
loop_end=240287
loop_mode=loop_continuous
loop_start=81384
loop_xfade=15785
lovel=0
offset=4848
pitch_keycenter=G#3
sample=Violas_sul_tasto_PP_G#3.opus
</region>

<region>
end=366263
hikey=G5
hivel=127
lokey=F#5
loop_end=290720
loop_mode=loop_continuous
loop_start=98466
loop_xfade=19099
lovel=0
pitch_keycenter=F#5
sample=Violas_sul_tasto_PP_F#5.opus
</region>

<region>
end=353906
hikey=G4
hivel=127
lokey=F#4
loop_end=280912
loop_mode=loop_continuous
loop_start=95144
loop_xfade=18454
lovel=0
pitch_keycenter=F#4
sample=Violas_sul_tasto_PP_F#4.opus
</region>

<region>
end=338559
hikey=G3
hivel=127
lokey=F#3
loop_end=268730
loop_mode=loop_continuous
loop_start=91018
loop_xfade=17654
lovel=0
pitch_keycenter=F#3
sample=Violas_sul_tasto_PP_F#3.opus
</region>

<region>
end=372257
hikey=F5
hivel=127
lokey=E5
loop_end=295478
loop_mode=loop_continuous
loop_start=100077
loop_xfade=19411
lovel=0
offset=9871
pitch_keycenter=E5
sample=Violas_sul_tasto_PP_E5.opus
</region>

<region>
end=371574
hikey=F4
hivel=127
lokey=E4
loop_end=294936
loop_mode=loop_continuous
loop_start=99893
loop_xfade=19376
lovel=0
offset=7498
pitch_keycenter=E4
sample=Violas_sul_tasto_PP_E4.opus
</region>

<region>
end=355690
hikey=F3
hivel=127
lokey=E3
loop_end=282328
loop_mode=loop_continuous
loop_start=95623
loop_xfade=18547
lovel=0
offset=4596
pitch_keycenter=E3
sample=Violas_sul_tasto_PP_E3.opus
</region>

<region>
end=374399
hikey=D#5
hivel=127
lokey=D5
loop_end=297178
loop_mode=loop_continuous
loop_start=100653
loop_xfade=19523
lovel=0
offset=14452
pitch_keycenter=D5
sample=Violas_sul_tasto_PP_D5.opus
</region>

<region>
end=374399
hikey=D#4
hivel=127
lokey=D4
loop_end=297178
loop_mode=loop_continuous
loop_start=100653
loop_xfade=19523
lovel=0
offset=14278
pitch_keycenter=D4
sample=Violas_sul_tasto_PP_D4.opus
</region>

<region>
end=366719
hikey=D#3
hivel=127
lokey=D3
loop_end=291082
loop_mode=loop_continuous
loop_start=98588
loop_xfade=19122
lovel=0
offset=2402
pitch_keycenter=D3
sample=Violas_sul_tasto_PP_D3.opus
</region>

<region>
end=374400
hikey=C#6
hivel=127
lokey=C6
loop_end=297179
loop_mode=loop_continuous
loop_start=100653
loop_xfade=19523
lovel=0
offset=14909
pitch_keycenter=C6
sample=Violas_sul_tasto_PP_C6.opus
</region>

<region>
end=374399
hikey=C#5
hivel=127
lokey=C5
loop_end=297178
loop_mode=loop_continuous
loop_start=100653
loop_xfade=19523
lovel=0
offset=9586
pitch_keycenter=C5
sample=Violas_sul_tasto_PP_C5.opus
</region>

<region>
end=373502
hikey=C#4
hivel=127
lokey=C4
loop_end=296466
loop_mode=loop_continuous
loop_start=100412
loop_xfade=19476
lovel=0
offset=9111
sample=Violas_sul_tasto_PP_C4.opus
</region>

<region>
end=344429
hikey=C#3
hivel=127
lokey=C3
loop_end=273389
loop_mode=loop_continuous
loop_start=92596
loop_xfade=17960
lovel=0
offset=11271
pitch_keycenter=C3
sample=Violas_sul_tasto_PP_C3.opus
</region>

<region>
end=374400
hikey=B5
hivel=127
lokey=A#5
loop_end=297179
loop_mode=loop_continuous
loop_start=100653
loop_xfade=19523
lovel=0
offset=11563
pitch_keycenter=A#5
sample=Violas_sul_tasto_PP_A#5.opus
</region>

<region>
end=374399
hikey=B4
hivel=127
lokey=A#4
loop_end=297178
loop_mode=loop_continuous
loop_start=100653
loop_xfade=19523
lovel=0
offset=10928
pitch_keycenter=A#4
sample=Violas_sul_tasto_PP_A#4.opus
</region>

<region>
end=306192
hikey=B3
hivel=127
lokey=A#3
loop_end=243039
loop_mode=loop_continuous
loop_start=82316
loop_xfade=15966
lovel=0
pitch_keycenter=A#3
sample=Violas_sul_tasto_PP_A#3.opus
</region>
</group>

<group>
group_label=MF
xf_cccurve=gain
xfin_hicc1=84
xfin_locc1=43
xfout_hicc1=127
xfout_locc1=85

<region>
end=319937
hikey=A5
hivel=127
lokey=G#5
loop_end=253949
loop_mode=loop_continuous
loop_start=86011
loop_xfade=16683
lovel=0
offset=7507
pitch_keycenter=G#5
sample=Violas_sul_tasto_MF_G#5.opus
</region>

<region>
end=314286
hikey=A4
hivel=127
lokey=G#4
loop_end=249463
loop_mode=loop_continuous
loop_start=84492
loop_xfade=16388
lovel=0
offset=5345
pitch_keycenter=G#4
sample=Violas_sul_tasto_MF_G#4.opus
</region>

<region>
end=318148
hikey=A3
hivel=127
lokey=G#3
loop_end=252529
loop_mode=loop_continuous
loop_start=85530
loop_xfade=16590
lovel=0
offset=3827
pitch_keycenter=G#3
sample=Violas_sul_tasto_MF_G#3.opus
</region>

<region>
end=316899
hikey=G5
hivel=127
lokey=F#5
loop_end=251537
loop_mode=loop_continuous
loop_start=85195
loop_xfade=16524
lovel=0
offset=5414
pitch_keycenter=F#5
sample=Violas_sul_tasto_MF_F#5.opus
</region>

<region>
end=303144
hikey=G4
hivel=127
lokey=F#4
loop_end=240619
loop_mode=loop_continuous
loop_start=81497
loop_xfade=15807
lovel=0
offset=5849
pitch_keycenter=F#4
sample=Violas_sul_tasto_MF_F#4.opus
</region>

<region>
end=289338
hikey=G3
hivel=127
lokey=F#3
loop_end=229661
loop_mode=loop_continuous
loop_start=77785
loop_xfade=15087
lovel=0
offset=1489
pitch_keycenter=F#3
sample=Violas_sul_tasto_MF_F#3.opus
</region>

<region>
end=308548
hikey=F5
hivel=127
lokey=E5
loop_end=244909
loop_mode=loop_continuous
loop_start=82949
loop_xfade=16089
lovel=0
offset=3987
pitch_keycenter=E5
sample=Violas_sul_tasto_MF_E5.opus
</region>

<region>
end=319083
hikey=F4
hivel=127
lokey=E4
loop_end=253271
loop_mode=loop_continuous
loop_start=85782
loop_xfade=16638
lovel=0
offset=8111
pitch_keycenter=E4
sample=Violas_sul_tasto_MF_E4.opus
</region>

<region>
end=326486
hikey=F3
hivel=127
lokey=E3
loop_end=259147
loop_mode=loop_continuous
loop_start=87772
loop_xfade=17024
lovel=0
offset=9848
pitch_keycenter=E3
sample=Violas_sul_tasto_MF_E3.opus
</region>

<region>
end=337513
hikey=D#5
hivel=127
lokey=D5
loop_end=267900
loop_mode=loop_continuous
loop_start=90736
loop_xfade=17599
lovel=0
offset=3905
pitch_keycenter=D5
sample=Violas_sul_tasto_MF_D5.opus
</region>

<region>
end=318113
hikey=D#4
hivel=127
lokey=D4
loop_end=252501
loop_mode=loop_continuous
loop_start=85521
loop_xfade=16588
lovel=0
offset=13136
pitch_keycenter=D4
sample=Violas_sul_tasto_MF_D4.opus
</region>

<region>
end=319025
hikey=D#3
hivel=127
lokey=D3
loop_end=253225
loop_mode=loop_continuous
loop_start=85766
loop_xfade=16635
lovel=0
offset=2132
pitch_keycenter=D3
sample=Violas_sul_tasto_MF_D3.opus
</region>

<region>
end=317041
hikey=C#6
hivel=127
lokey=C6
loop_end=251650
loop_mode=loop_continuous
loop_start=85233
loop_xfade=16532
lovel=0
offset=4559
pitch_keycenter=C6
sample=Violas_sul_tasto_MF_C6.opus
</region>

<region>
end=363744
hikey=C#5
hivel=127
lokey=C5
loop_end=288720
loop_mode=loop_continuous
loop_start=97788
loop_xfade=18967
lovel=0
offset=23167
pitch_keycenter=C5
sample=Violas_sul_tasto_MF_C5.opus
</region>

<region>
end=327004
hikey=C#4
hivel=127
lokey=C4
loop_end=259558
loop_mode=loop_continuous
loop_start=87911
loop_xfade=17051
lovel=0
offset=2502
sample=Violas_sul_tasto_MF_C4.opus
</region>

<region>
end=324453
hikey=C#3
hivel=127
lokey=C3
loop_end=257533
loop_mode=loop_continuous
loop_start=87225
loop_xfade=16918
lovel=0
offset=755
pitch_keycenter=C3
sample=Violas_sul_tasto_MF_C3.opus
</region>

<region>
end=311921
hikey=B5
hivel=127
lokey=A#5
loop_end=247586
loop_mode=loop_continuous
loop_start=83856
loop_xfade=16265
lovel=0
offset=5218
pitch_keycenter=A#5
sample=Violas_sul_tasto_MF_A#5.opus
</region>

<region>
end=308787
hikey=B4
hivel=127
lokey=A#4
loop_end=245098
loop_mode=loop_continuous
loop_start=83014
loop_xfade=16101
lovel=0
offset=4461
pitch_keycenter=A#4
sample=Violas_sul_tasto_MF_A#4.opus
</region>

<region>
end=316549
hikey=B3
hivel=127
lokey=A#3
loop_end=251260
loop_mode=loop_continuous
loop_start=85100
loop_xfade=16506
lovel=0
offset=4455
pitch_keycenter=A#3
sample=Violas_sul_tasto_MF_A#3.opus
</region>
</group>

<group>
group_label=FF
xf_cccurve=gain
xfin_hicc1=127
xfin_locc1=85
xfout_hicc1=127
xfout_locc1=127

<region>
end=320780
hikey=A5
hivel=127
lokey=G#5
loop_end=254618
loop_mode=loop_continuous
loop_start=86238
loop_xfade=16727
lovel=0
offset=7113
pitch_keycenter=G#5
sample=Violas_sul_tasto_FF_G#5.opus
</region>

<region>
end=310344
hikey=A4
hivel=127
lokey=G#4
loop_end=246334
loop_mode=loop_continuous
loop_start=83432
loop_xfade=16183
lovel=0
offset=4004
pitch_keycenter=G#4
sample=Violas_sul_tasto_FF_G#4.opus
</region>

<region>
end=326951
hikey=A3
hivel=127
lokey=G#3
loop_end=259516
loop_mode=loop_continuous
loop_start=87897
loop_xfade=17049
lovel=0
offset=448
pitch_keycenter=G#3
sample=Violas_sul_tasto_FF_G#3.opus
</region>

<region>
end=332960
hikey=G5
hivel=127
lokey=F#5
loop_end=264286
loop_mode=loop_continuous
loop_start=89512
loop_xfade=17362
lovel=0
offset=3870
pitch_keycenter=F#5
sample=Violas_sul_tasto_FF_F#5.opus
</region>

<region>
end=310614
hikey=G4
hivel=127
lokey=F#4
loop_end=246549
loop_mode=loop_continuous
loop_start=83505
loop_xfade=16197
lovel=0
offset=4715
pitch_keycenter=F#4
sample=Violas_sul_tasto_FF_F#4.opus
</region>

<region>
end=336374
hikey=G3
hivel=127
lokey=F#3
loop_end=266996
loop_mode=loop_continuous
loop_start=90430
loop_xfade=17540
lovel=0
offset=5051
pitch_keycenter=F#3
sample=Violas_sul_tasto_FF_F#3.opus
</region>

<region>
end=313867
hikey=F5
hivel=127
lokey=E5
loop_end=249131
loop_mode=loop_continuous
loop_start=84379
loop_xfade=16366
lovel=0
offset=2522
pitch_keycenter=E5
sample=Violas_sul_tasto_FF_E5.opus
</region>

<region>
end=308066
hikey=F4
hivel=127
lokey=E4
loop_end=244526
loop_mode=loop_continuous
loop_start=82820
loop_xfade=16064
lovel=0
offset=4297
pitch_keycenter=E4
sample=Violas_sul_tasto_FF_E4.opus
</region>

<region>
end=335559
hikey=F3
hivel=127
lokey=E3
loop_end=266349
loop_mode=loop_continuous
loop_start=90211
loop_xfade=17498
lovel=0
offset=2127
pitch_keycenter=E3
sample=Violas_sul_tasto_FF_E3.opus
</region>

<region>
end=323063
hikey=D#5
hivel=127
lokey=D5
loop_end=256430
loop_mode=loop_continuous
loop_start=86852
loop_xfade=16846
lovel=0
offset=2799
pitch_keycenter=D5
sample=Violas_sul_tasto_FF_D5.opus
</region>

<region>
end=322507
hikey=D#4
hivel=127
lokey=D4
loop_end=255989
loop_mode=loop_continuous
loop_start=86702
loop_xfade=16817
lovel=0
offset=7271
pitch_keycenter=D4
sample=Violas_sul_tasto_FF_D4.opus
</region>

<region>
end=353370
hikey=D#3
hivel=127
lokey=D3
loop_end=280486
loop_mode=loop_continuous
loop_start=94999
loop_xfade=18426
lovel=0
offset=952
pitch_keycenter=D3
sample=Violas_sul_tasto_FF_D3.opus
</region>

<region>
end=315227
hikey=C#6
hivel=127
lokey=C6
loop_end=250210
loop_mode=loop_continuous
loop_start=84745
loop_xfade=16437
lovel=0
offset=6874
pitch_keycenter=C6
sample=Violas_sul_tasto_FF_C6.opus
</region>

<region>
end=331785
hikey=C#5
hivel=127
lokey=C5
loop_end=263353
loop_mode=loop_continuous
loop_start=89197
loop_xfade=17301
lovel=0
offset=3432
pitch_keycenter=C5
sample=Violas_sul_tasto_FF_C5.opus
</region>

<region>
end=331839
hikey=C#4
hivel=127
lokey=C4
loop_end=263396
loop_mode=loop_continuous
loop_start=89211
loop_xfade=17304
lovel=0
offset=4148
sample=Violas_sul_tasto_FF_C4.opus
</region>

<region>
end=302768
hikey=C#3
hivel=127
lokey=C3
loop_end=240321
loop_mode=loop_continuous
loop_start=81396
loop_xfade=15788
lovel=0
offset=2714
pitch_keycenter=C3
sample=Violas_sul_tasto_FF_C3.opus
</region>

<region>
end=322757
hikey=B5
hivel=127
lokey=A#5
loop_end=256187
loop_mode=loop_continuous
loop_start=86769
loop_xfade=16830
lovel=0
offset=6958
pitch_keycenter=A#5
sample=Violas_sul_tasto_FF_A#5.opus
</region>

<region>
end=325357
hikey=B4
hivel=127
lokey=A#4
loop_end=258251
loop_mode=loop_continuous
loop_start=87468
loop_xfade=16966
lovel=0
offset=7259
pitch_keycenter=A#4
sample=Violas_sul_tasto_FF_A#4.opus
</region>

<region>
end=319919
hikey=B3
hivel=127
lokey=A#3
loop_end=253934
loop_mode=loop_continuous
loop_start=86006
loop_xfade=16682
lovel=0
offset=1260
pitch_keycenter=A#3
sample=Violas_sul_tasto_FF_A#3.opus
</region>
</group>